<svg width="92" height="92" fill="none" xmlns="http://www.w3.org/2000/svg"><mask id="a" style="mask-type:alpha" maskUnits="userSpaceOnUse" x="0" y="0" width="92" height="92"><path fill="#C4C4C4" d="M0 0h92v92H0z"/></mask><g mask="url(#a)"><path opacity=".2" d="M11 38a2 2 0 1 0 0-4 2 2 0 0 0 0 4ZM87.075 22.433a2.073 2.073 0 1 0 0-4.146 2.073 2.073 0 0 0 0 4.146ZM17 89a3 3 0 1 0 0-6 3 3 0 0 0 0 6Z" fill="#FFA700"/><path fill-rule="evenodd" clip-rule="evenodd" d="m84.063 86.998-4.068.855 1.714-3.661-2.169-3.499 4.155.512 2.729-3.018.853 3.978 3.855 1.634-3.628 1.946-.346 4.027-3.095-2.774Z" fill="#FFDD67" fill-opacity=".6"/><path opacity=".5" fill-rule="evenodd" clip-rule="evenodd" d="m67.19 10.636-4.151-.227 2.603-3.093-1.19-3.94 3.882 1.57 3.416-2.21-.205 4.064 3.3 2.576-4.007.94-1.377 3.801-2.272-3.481Z" fill="#FFDD67" fill-opacity=".6"/><path fill-rule="evenodd" clip-rule="evenodd" d="m8.352 76.18-2.841 2.53-.31-3.663-3.319-1.764 3.534-1.493.79-3.62L8.7 70.91l3.807-.474-1.993 3.187 1.564 3.327-3.726-.77Z" fill="#FFDD67" fill-opacity=".6"/><path fill-rule="evenodd" clip-rule="evenodd" d="M9.5 19.804 7.337 21l.413-2.533L6 16.674l2.418-.37L9.5 14l1.082 2.304 2.418.37-1.75 1.793.413 2.533L9.5 19.804Z" fill="#FFDD67" fill-opacity=".5"/><rect opacity=".5" x="17" y="16" width="65" height="64" rx="8" fill="url(#b)"/><path d="m19.75 40.569-2.07 17.355 24.448-7.879L22.944 38.97a2.14 2.14 0 0 0-3.193 1.599ZM66.68 27.994 77.15 41.99l-25.11 5.4 11.075-19.183a2.139 2.139 0 0 1 3.565-.212Z" fill="#E88300"/><path d="m3.12 49.33 14.584 28.506 69.381-18.59-1.623-31.98c-.093-1.834-2.303-2.705-3.623-1.428l-15.597 15.09-26.483-26.72c-1.165-1.176-3.166-.64-3.588.961l-9.575 36.382-21.051-5.27c-1.783-.446-3.261 1.414-2.424 3.05Z" fill="#FFA700"/><path d="M86.052 59.522c.044.163.04.441-.209.897-.252.46-.712 1.017-1.423 1.654-1.418 1.27-3.65 2.703-6.574 4.199-5.833 2.984-14.207 6.116-23.736 8.669-9.53 2.553-18.348 4.028-24.89 4.36-3.281.167-5.931.043-7.794-.349-.934-.196-1.61-.448-2.06-.72-.443-.27-.585-.51-.629-.673-.043-.164-.04-.442.209-.897.252-.461.713-1.017 1.423-1.654 1.418-1.27 3.65-2.703 6.575-4.2 5.832-2.983 14.206-6.115 23.736-8.668 9.529-2.554 18.347-4.029 24.89-4.36 3.28-.167 5.93-.043 7.794.349.933.196 1.61.447 2.059.72.443.27.585.51.629.673Z" fill="#BE6B00" stroke="#FFB887" stroke-width="2.139"/><circle cx="46.843" cy="47.347" r="7.268" transform="rotate(-15 46.843 47.347)" fill="#FFDBC2"/><path d="m54.3 26.537-2.97 14.832-1.872-.502 4.843-14.33Z" fill="#fff"/><path d="m64.58 44.34-14.832-2.972.501-1.87 14.33 4.842Z" fill="#fff"/><path d="m46.776 54.62 2.971-14.833 1.871.502-4.842 14.33Z" fill="#fff"/><path d="m36.497 36.816 14.832 2.971-.501 1.871-14.331-4.842Z" fill="#fff"/></g><defs><linearGradient id="b" x1="77.222" y1="25.501" x2="22.703" y2="69.522" gradientUnits="userSpaceOnUse"><stop stop-color="#B8EDFF" stop-opacity=".5"/><stop offset="1" stop-color="#16C1FE" stop-opacity=".5"/></linearGradient></defs></svg>