<svg class="fill-white" width="107" height="21" viewBox="0 0 119 23" xmlns="http://www.w3.org/2000/svg"><g clip-path="url(#clip0_5726_4393)"><path d="M49.7161 16.3077C49.3776 16.3077 47.4224 18.5056 44.9218 18.6966C43.1546 18.8304 42.2147 17.55 42.2147 16.7091C47.648 15.9254 49.8851 13.7658 49.8851 11.0139C49.8851 9.16014 48.3248 7.22989 45.7492 7.22989C40.109 7.22989 38.6238 12.7531 38.4357 16.5753C38.3041 18.257 37.3454 18.5056 36.6122 18.4673C35.8601 18.4291 35.315 17.7601 35.4466 16.5561L36.5558 8.96909C36.5745 8.83531 36.8566 7.3064 35.7849 7.26814C34.6569 7.21064 33.1717 7.74578 32.9085 9.38945C32.6641 10.9949 32.5513 11.9122 32.3446 13.2117C32.1941 14.301 31.9873 15.4095 31.8932 16.4606C31.6865 17.4543 31.3481 17.9512 30.3142 17.9512C28.9981 17.8174 29.0357 16.6518 29.1673 15.6578L30.0886 8.9881C30.1073 8.85431 30.3892 7.3064 29.3176 7.26814C28.1898 7.21064 26.7044 7.76502 26.4412 9.40846C26.3848 9.8098 26.3283 10.1729 26.272 10.517V10.498C26.0088 12.409 25.1251 13.25 24.1099 13.0396C23.0947 12.8104 23.6024 9.98184 23.6211 9.94363C23.9596 7.57397 23.1323 6.73301 21.1018 7.612C20.0303 8.07085 18.9211 9.27469 18.1877 10.1729L18.357 8.96909C18.376 8.83531 18.6579 7.3064 17.5863 7.26814C16.4582 7.21064 14.9731 7.74578 14.7098 9.38945C14.7098 9.44672 14.691 9.50422 14.691 9.5615C14.691 9.5615 14.5593 10.2687 14.3902 10.8801C14.3151 11.1286 14.2398 11.377 14.1834 11.5491C13.9579 12.2179 13.7134 12.8676 13.4502 13.4983C13.1682 14.1289 12.8861 14.7406 12.5478 15.333C12.3786 15.6198 12.2093 15.9064 12.0214 16.174C11.8335 16.4415 11.6453 16.7091 11.4386 16.9384C11.0438 17.4163 10.5927 17.8174 10.1413 18.1042C10.0662 18.1615 9.99095 18.1997 9.91568 18.238C7.73493 19.1935 7.3401 17.0532 7.28377 16.7473C7.26484 16.5943 7.24613 16.4222 7.24613 16.2505C7.2272 15.9829 7.2272 15.6961 7.24613 15.3905C7.24613 15.1037 7.26483 14.7979 7.30247 14.492C7.35881 13.8807 7.453 13.25 7.58439 12.6193C7.69729 12.0459 7.8289 11.4917 7.97922 10.9184C9.25765 11.0711 10.4611 11.186 10.8933 11.205C11.9274 11.2815 12.5101 10.7463 12.6042 10.1539C12.6794 9.69526 12.6229 9.94363 12.811 8.85431C13.093 7.2489 12.7545 7.2489 11.4574 7.2489C11.4574 7.2489 10.5361 7.2489 9.22001 7.2489C9.25765 7.17262 9.27658 7.09611 9.31421 7.00058C9.80301 5.79652 10.4234 4.70723 11.0625 3.50317C11.8709 1.95526 11.6642 1.59216 10.6677 0.731956C7.58439 -1.5804 6.02403 2.54767 5.66685 3.19735C5.38493 3.84726 5.12172 4.49693 4.83957 5.26138C4.59528 5.91128 4.36971 6.57998 4.18175 7.2489L0.929211 7.2489C-0.0483785 7.2489 0.0455955 8.16638 0.0455955 8.16638C0.0455955 9.02636 2.05711 9.79079 3.41081 10.1922C3.29814 10.7463 3.20394 11.3197 3.1289 11.8738C3.01599 12.6383 2.95966 13.4219 2.92202 14.2247C2.90332 15.0272 2.92202 15.8491 3.03493 16.7091C3.09126 17.1294 3.18523 17.569 3.31684 18.0277C3.39211 18.257 3.46716 18.4863 3.54242 18.7157C3.63639 18.9452 3.7493 19.1745 3.86197 19.4038C4.10649 19.8624 4.44475 20.3211 4.8772 20.7224C5.30966 21.1238 5.83609 21.4486 6.38122 21.6589C6.66336 21.7544 6.92658 21.831 7.20849 21.8692C7.47171 21.9075 7.8102 21.9265 8.05448 21.9265C8.54327 21.9265 9.051 21.85 9.5209 21.7161C9.99095 21.5824 10.4421 21.353 10.837 21.1048C11.2318 20.8372 11.5889 20.5503 11.8898 20.2255C12.4913 19.5949 12.9237 18.8877 13.2809 18.1807C13.3562 18.0277 13.4315 17.8556 13.5065 17.7029C13.3749 19.1553 13.4502 20.4548 13.9766 21.1238C15.0106 22.4043 16.4395 21.9837 16.5898 20.9709C16.7214 20.0727 16.9846 18.2952 17.1915 16.9574C17.4358 15.5815 17.699 14.7596 18.1877 13.6321C18.7708 12.3135 20.4064 11.205 20.3687 12.7531C20.2748 17.2825 23.6211 17.3588 25.5576 15.3523C25.2757 17.3398 25.2004 19.1935 26.2343 20.4741C28.2647 22.9585 31.2918 21.7354 32.8708 20.6459C34.2808 22.5954 37.9469 22.1748 39.5449 20.2065C40.6917 21.8117 42.8351 21.9837 44.4144 21.9265C48.9452 21.6779 51.7653 16.3077 49.7161 16.3077ZM46.5764 11.2242C46.877 12.6383 44.9031 13.8424 42.2334 14.2437C42.2334 13.6131 42.4589 11.9121 44.0382 11.0904C45.1475 10.5363 46.4448 10.5553 46.5764 11.2242Z"/><path d="M78.2737 0.701009C78.2737 0.350971 78.5838 0.0355225 78.9284 0.0355225L81.8232 0.0355225C82.1678 0.0355225 82.4779 0.350971 82.4779 0.701009V21.2699C82.4779 21.6204 82.1678 21.9356 81.8232 21.9356H78.9284C78.5838 21.9356 78.2737 21.6204 78.2737 21.2699V0.701009Z"/><path d="M84.1185 0.701009C84.1185 0.350971 84.4286 0.0355225 84.773 0.0355225L87.6678 0.0355225C88.0124 0.0355225 88.3225 0.350971 88.3225 0.701009V21.2699C88.3225 21.6204 88.0124 21.9356 87.6678 21.9356H84.773C84.4286 21.9356 84.1185 21.6204 84.1185 21.2699V0.701009Z"/><path d="M98.9284 12.8272C98.9768 12.8272 99.0157 12.7835 99.01 12.7345C98.8629 11.4798 97.7818 10.4453 96.5041 10.4453C95.1591 10.4453 94.0438 11.4455 93.8302 12.7304C93.8218 12.7807 93.8617 12.8272 93.912 12.8272L98.9284 12.8272ZM96.6076 7.22253C100.157 7.22253 103.052 9.95479 103.052 13.7383C103.052 13.9835 103.017 14.4388 102.982 14.684C102.948 15.0343 102.638 15.2794 102.328 15.2794L93.5965 15.2794C93.548 15.2794 93.5088 15.322 93.5137 15.3707C93.6605 16.7833 94.8573 18.3273 96.8136 18.3273C97.8824 18.3273 98.8819 17.9067 99.5017 17.4516C99.8463 17.2412 100.157 17.1714 100.398 17.4516L101.81 19.0977C102.052 19.3431 102.122 19.7284 101.776 20.0088C100.639 21.0946 98.8819 21.9356 96.6418 21.9356C92.5062 21.9356 89.5773 18.6073 89.5773 14.5788C89.5773 10.6205 92.5062 7.22253 96.6076 7.22253Z"/><path d="M104.262 8.26173C104.262 7.87642 104.572 7.59624 104.917 7.59624H106.226C106.536 7.59624 106.743 7.77126 106.847 8.05165L107.278 9.27084C107.299 9.33246 107.379 9.34598 107.417 9.29352C107.957 8.55724 109.206 7.24597 111.224 7.24597C112.843 7.24597 114.29 7.77126 113.877 8.64704L112.602 10.9241C112.43 11.2395 112.084 11.3796 111.809 11.2395C111.706 11.2043 111.188 11.029 110.81 11.029C109.686 11.029 108.929 11.6576 108.556 12.1554C108.426 12.3303 108.363 12.5477 108.363 12.7671V21.27C108.363 21.6376 108.07 21.9357 107.708 21.9357H104.917C104.557 21.9357 104.262 21.636 104.262 21.27V8.26173Z"/><path d="M58.3739 21.9356C54.3484 21.9356 51.0732 18.6384 51.0732 14.5855C51.0732 10.601 54.4327 7.23486 58.4088 7.23486C60.4757 7.23486 62.1403 8.04718 63.498 9.71767C63.5944 9.84388 63.6366 9.9974 63.6145 10.1476C63.5904 10.31 63.4937 10.4587 63.343 10.5662L61.726 12.137C61.6379 12.2165 61.546 12.2564 61.4472 12.2564C61.3134 12.2564 61.1622 12.1815 60.9849 12.0268C60.3545 11.3043 59.4269 10.8677 58.5133 10.8677C56.5737 10.8677 54.9959 12.5354 54.9959 14.5855C54.9959 16.6701 56.5255 18.303 58.4784 18.303C59.9209 18.303 60.6085 17.6354 61.215 17.0465L61.3373 16.9281C61.4682 16.7949 61.6246 16.7225 61.7797 16.7225C61.8892 16.7225 61.9912 16.7582 62.0839 16.8289L63.5794 18.1367C63.8209 18.3335 64.0538 18.6404 63.8075 18.9978C62.5939 20.921 60.7156 21.9356 58.3739 21.9356Z"/><path d="M72.8331 17.4751C72.8331 17.5583 72.8106 17.6396 72.7633 17.7077C72.4469 18.164 71.4657 18.9577 70.4552 18.9577C69.387 18.9577 68.6634 18.1871 68.6634 17.1361C68.6634 16.0152 69.5594 15.2445 70.9035 15.2445C71.6572 15.2445 72.3718 15.4837 72.6775 15.6013C72.7719 15.6374 72.8331 15.7295 72.8331 15.8319V17.4751ZM71.3168 7.22253C69.1112 7.22253 66.9059 7.78287 66.63 7.88779C66.3199 7.99317 66.0441 8.23829 66.1476 8.76358L66.4581 10.5853C66.5269 11.0409 66.768 11.3561 67.2504 11.2161C68.043 10.9706 69.8352 10.6903 71.1101 10.6903C72.2398 10.6903 72.8016 11.1856 72.8908 12.5413C72.9089 12.8154 72.6588 13.0304 72.3959 12.9677C71.9351 12.8575 71.2031 12.7224 70.3864 12.7224C66.8714 12.7224 64.8727 14.6489 64.8727 17.1361C64.8727 20.114 66.768 21.9356 69.5251 21.9356C71.4932 21.9356 72.7293 21.0442 73.5313 20.3284C73.5728 20.2915 73.6361 20.3069 73.658 20.3581L74.2031 21.6344C74.281 21.8171 74.4585 21.9356 74.6545 21.9356H76.1316C76.4037 21.9356 76.6241 21.7116 76.6241 21.435V20.9194V13.3177C76.6241 9.49939 75.6244 7.22253 71.3168 7.22253Z"/></g><defs><clipPath id="clip0_5726_4393"><rect width="114" height="22"/></clipPath></defs></svg>