<svg width="88" height="88" viewBox="0 0 88 88" fill="none" xmlns="http://www.w3.org/2000/svg">
<path d="M39.25 3.31976C42.1893 1.62275 45.8107 1.62275 48.75 3.31976L76.8551 19.5463C79.7944 21.2433 81.6051 24.3795 81.6051 27.7735V60.2265C81.6051 63.6205 79.7944 66.7567 76.8551 68.4537L48.75 84.6802C45.8107 86.3772 42.1893 86.3772 39.25 84.6802L11.1449 68.4537C8.20557 66.7567 6.39488 63.6205 6.39488 60.2265V27.7735C6.39488 24.3795 8.20557 21.2433 11.1449 19.5463L39.25 3.31976Z" stroke="#3B89FF"/>
<path fill-rule="evenodd" clip-rule="evenodd" d="M61.359 57.7026C61.359 57.7026 60.9271 58.747 59.5235 60.5115C58.1199 62.276 55.6007 61.988 55.6007 61.988C50.9581 61.4838 46.2435 59.8993 41.7448 57.3065C39.4055 55.9381 37.2821 54.3536 35.4107 52.5891C33.6472 50.7525 32.0637 48.6279 30.6961 46.2511C28.1048 41.7498 26.2694 36.9243 26.0174 32.4229C26.0174 32.4229 25.7295 29.9022 27.493 28.4977C29.2565 27.0933 30.3002 26.6612 30.3002 26.6612C30.3002 26.6612 32.9994 24.8246 34.403 27.2733C36.0225 30.0822 39.2615 33.1071 37.2821 36.2401C35.6266 38.9409 34.5829 40.6694 34.331 41.1376C34.6909 41.9298 35.0868 42.6861 35.5186 43.4423C36.6343 45.3509 37.9299 47.1154 39.3335 48.5919C40.8451 49.9963 42.5725 51.2927 44.48 52.409C45.2358 52.8412 46.0275 53.2373 46.7833 53.5974C47.2152 53.3453 48.9787 52.337 51.6779 50.6445C54.8089 48.6999 57.868 51.9049 60.6752 53.5254C63.1944 55.0018 61.359 57.7026 61.359 57.7026Z" fill="white"/>
<path d="M30.4141 45.7679L35.2632 39.5331C34.7678 40.3549 34.4464 40.9 34.321 41.133C34.6809 41.9253 35.0768 42.6815 35.5086 43.4377C36.6243 45.3463 37.9199 47.1109 39.3235 48.5873C40.8351 49.9917 42.5626 51.2881 44.47 52.4045C45.1815 52.8113 45.925 53.1863 46.6403 53.5293L41.2656 57.0229C39.1109 55.7196 37.1462 54.2304 35.4007 52.5845C33.6372 50.748 32.0537 48.6233 30.6861 46.2466C30.5944 46.0874 30.5038 45.9279 30.4141 45.7679Z" fill="#0A6CFF"/>
<rect x="56.5962" y="29.2825" width="3" height="16" transform="rotate(45 56.5962 29.2825)" fill="#0A6CFF"/>
<rect x="52" y="23.9792" width="17" height="17" rx="8.5" transform="rotate(45 52 23.9792)" stroke="white" stroke-width="3"/>
</svg>
