<svg width="88" height="88" viewBox="0 0 88 88" fill="none" xmlns="http://www.w3.org/2000/svg">
<path d="M39.25 3.31976C42.1893 1.62275 45.8107 1.62275 48.75 3.31976L76.8551 19.5463C79.7944 21.2433 81.6051 24.3795 81.6051 27.7735V60.2265C81.6051 63.6205 79.7944 66.7567 76.8551 68.4537L48.75 84.6802C45.8107 86.3772 42.1893 86.3772 39.25 84.6802L11.1449 68.4537C8.20557 66.7567 6.39488 63.6205 6.39488 60.2265V27.7735C6.39488 24.3795 8.20557 21.2433 11.1449 19.5463L39.25 3.31976Z" stroke="#3B89FF"/>
<path d="M21 26H53C55.2091 26 57 27.7909 57 30V46C57 48.2091 55.2091 50 53 50H25C22.7909 50 21 48.2091 21 46V26Z" fill="#0A6CFF"/>
<rect x="25" y="32" width="28" height="3" rx="1.5" fill="#E6F0FF"/>
<path d="M21 26H17C16.176 26 15.7056 26.9408 16.2 27.6L21 34V26Z" fill="#0A6CFF"/>
<path d="M31 42C31 39.7909 32.7909 38 35 38H67V58C67 60.2091 65.2091 62 63 62H35C32.7909 62 31 60.2091 31 58V42Z" fill="white"/>
<path d="M46.367 45.7592C45.7025 43.9319 47.0557 42 49 42C50.9443 42 52.2975 43.9319 51.633 45.7592L49 53L46.367 45.7592Z" fill="#0A6CFF"/>
<rect x="47" y="54" width="4" height="4" rx="2" fill="#0A6CFF"/>
<path d="M67 38H71C71.824 38 72.2944 38.9408 71.8 39.6L67 46V38Z" fill="white"/>
</svg>
