<svg width="88" height="88" viewBox="0 0 88 88" fill="none" xmlns="http://www.w3.org/2000/svg">
<path d="M39.25 3.31976C42.1893 1.62275 45.8107 1.62275 48.75 3.31976L76.8551 19.5463C79.7944 21.2433 81.6051 24.3795 81.6051 27.7735V60.2265C81.6051 63.6205 79.7944 66.7567 76.8551 68.4537L48.75 84.6802C45.8107 86.3772 42.1893 86.3772 39.25 84.6802L11.1449 68.4537C8.20557 66.7567 6.39488 63.6205 6.39488 60.2265V27.7735C6.39488 24.3795 8.20557 21.2433 11.1449 19.5463L39.25 3.31976Z" stroke="#3B89FF"/>
<mask id="mask0_10357_1606" style="mask-type:alpha" maskUnits="userSpaceOnUse" x="5" y="1" width="78" height="86">
<path d="M39.25 3.31976C42.1893 1.62275 45.8107 1.62275 48.75 3.31976L76.8551 19.5463C79.7944 21.2433 81.6051 24.3795 81.6051 27.7735V60.2265C81.6051 63.6205 79.7944 66.7567 76.8551 68.4537L48.75 84.6802C45.8107 86.3772 42.1893 86.3772 39.25 84.6802L11.1449 68.4537C8.20557 66.7567 6.39488 63.6205 6.39488 60.2265V27.7735C6.39488 24.3795 8.20557 21.2433 11.1449 19.5463L39.25 3.31976Z" fill="#0A6CFF" stroke="#E6F0FF"/>
</mask>
<g mask="url(#mask0_10357_1606)">
<rect x="38" y="21" width="12" height="26" fill="#CEE2FF"/>
<path d="M29 47H59L44 62L29 47Z" fill="white"/>
<rect x="17.75" y="8.125" width="9" height="19.5" fill="#095EDE"/>
<path d="M11 27.625H33.5L22.25 38.875L11 27.625Z" fill="#0A6CFF"/>
<rect x="3.0625" y="44" width="6.75" height="14.625" fill="#095EDE"/>
<path d="M-2 58.625H14.875L6.4375 67.0625L-2 58.625Z" fill="#0A6CFF"/>
<rect x="63.75" y="8" width="9" height="19.5" fill="#095EDE"/>
<path d="M57 27.5H79.5L68.25 38.75L57 27.5Z" fill="#0A6CFF"/>
<rect x="78.0625" y="45" width="6.75" height="14.625" fill="#095EDE"/>
<path d="M73 59.625H89.875L81.4375 68.0625L73 59.625Z" fill="#0A6CFF"/>
<rect x="28" y="63" width="32" height="4" fill="white"/>
</g>
</svg>
