<svg width="88" height="88" viewBox="0 0 88 88" fill="none" xmlns="http://www.w3.org/2000/svg">
<path d="M39.25 3.31976C42.1893 1.62275 45.8107 1.62275 48.75 3.31976L76.8551 19.5463C79.7944 21.2433 81.6051 24.3795 81.6051 27.7735V60.2265C81.6051 63.6205 79.7944 66.7567 76.8551 68.4537L48.75 84.6802C45.8107 86.3772 42.1893 86.3772 39.25 84.6802L11.1449 68.4537C8.20557 66.7567 6.39488 63.6205 6.39488 60.2265V27.7735C6.39488 24.3795 8.20557 21.2433 11.1449 19.5463L39.25 3.31976Z" stroke="#3B89FF"/>
<path d="M65.4343 74.8594L49.5467 84.0321C46.2696 85.9241 42.2321 85.9241 38.955 84.0321L23.0674 74.8594V23.5393C23.0674 21.0323 25.0997 19 27.6067 19H60.895C63.402 19 65.4343 21.0323 65.4343 23.5393V74.8594Z" fill="#0A6CFF"/>
<rect x="15.502" y="35.6442" width="57.498" height="27.2359" rx="3.02621" fill="white"/>
<rect x="20.041" y="40.1836" width="18.1573" height="18.1573" rx="9.07863" fill="#0A6CFF"/>
<path d="M36.4957 54.5579C34.8476 56.8489 32.1585 58.3407 29.1209 58.3407C26.0833 58.3407 23.3941 56.8489 21.7461 54.5579C23.3941 52.267 26.0833 50.7751 29.1209 50.7751C32.1585 50.7751 34.8476 52.267 36.4957 54.5579Z" fill="#9DC4FF"/>
<rect x="44.251" y="43.2097" width="21.1835" height="4.53931" rx="2.26966" fill="#0A6CFF"/>
<rect x="44.251" y="50.7751" width="13.6179" height="4.53931" rx="2.26966" fill="#0A6CFF"/>
<rect x="26.0938" y="43.2097" width="6.05242" height="6.05242" rx="3.02621" fill="white"/>
<rect x="41.2246" y="25.0525" width="6.05242" height="6.05242" rx="3.02621" fill="#E6F0FF"/>
</svg>
