<svg width="88" height="88" viewBox="0 0 88 88" fill="none" xmlns="http://www.w3.org/2000/svg">
<path d="M39.25 3.31976C42.1893 1.62275 45.8107 1.62275 48.75 3.31976L76.8551 19.5463C79.7944 21.2433 81.6051 24.3795 81.6051 27.7735V60.2265C81.6051 63.6205 79.7944 66.7567 76.8551 68.4537L48.75 84.6802C45.8107 86.3772 42.1893 86.3772 39.25 84.6802L11.1449 68.4537C8.20557 66.7567 6.39488 63.6205 6.39488 60.2265V27.7735C6.39488 24.3795 8.20557 21.2433 11.1449 19.5463L39.25 3.31976Z" stroke="#3B89FF"/>
<path d="M69 34L71.5745 40.4565L78.5106 40.9098L73.1656 45.3535L74.8779 52.0902L69 48.38L63.1221 52.0902L64.8344 45.3535L59.4894 40.9098L66.4255 40.4565L69 34Z" fill="#3B89FF"/>
<path d="M19 34L21.5745 40.4565L28.5106 40.9098L23.1656 45.3535L24.8779 52.0902L19 48.38L13.1221 52.0902L14.8344 45.3535L9.48944 40.9098L16.4255 40.4565L19 34Z" fill="#3B89FF"/>
<path d="M59 30L62.6043 39.0391L72.3148 39.6738L64.8319 45.8949L67.229 55.3262L59 50.132L50.771 55.3262L53.1681 45.8949L45.6852 39.6738L55.3957 39.0391L59 30Z" fill="#0A6CFF"/>
<path d="M29 30L32.6043 39.0391L42.3148 39.6738L34.8319 45.8949L37.229 55.3262L29 50.132L20.771 55.3262L23.1681 45.8949L15.6852 39.6738L25.3957 39.0391L29 30Z" fill="#0A6CFF"/>
<path d="M44 22L49.6639 36.2043L64.9232 37.2016L53.1644 46.9777L56.9313 61.7984L44 53.636L31.0687 61.7984L34.8356 46.9777L23.0768 37.2016L38.3361 36.2043L44 22Z" fill="white"/>
</svg>
