<svg width="88" height="88" viewBox="0 0 88 88" fill="none" xmlns="http://www.w3.org/2000/svg">
<mask id="mask0_10357_1642" style="mask-type:alpha" maskUnits="userSpaceOnUse" x="5" y="1" width="78" height="86">
<path d="M39 2.88675C42.094 1.10042 45.906 1.10042 49 2.88675L77.1051 19.1132C80.1991 20.8996 82.1051 24.2008 82.1051 27.7735V60.2265C82.1051 63.7992 80.1991 67.1004 77.1051 68.8867L49 85.1133C45.906 86.8996 42.094 86.8996 39 85.1133L10.8949 68.8867C7.80087 67.1004 5.89488 63.7992 5.89488 60.2265V27.7735C5.89488 24.2008 7.80087 20.8996 10.8949 19.1132L39 2.88675Z" fill="white"/>
<path d="M39.25 3.31976C42.1893 1.62275 45.8107 1.62275 48.75 3.31976L76.8551 19.5463C79.7944 21.2433 81.6051 24.3795 81.6051 27.7735V60.2265C81.6051 63.6205 79.7944 66.7567 76.8551 68.4537L48.75 84.6802C45.8107 86.3772 42.1893 86.3772 39.25 84.6802L11.1449 68.4537C8.20557 66.7567 6.39488 63.6205 6.39488 60.2265V27.7735C6.39488 24.3795 8.20557 21.2433 11.1449 19.5463L39.25 3.31976Z" stroke="#212B36" stroke-opacity="0.12"/>
</mask>
<g mask="url(#mask0_10357_1642)">
<rect x="35.7734" y="62.3" width="17.4" height="7.8" fill="#9DC4FF"/>
<path d="M33.4624 72.1999C33.4624 70.5431 34.8055 69.2 36.4624 69.2H52.0624C53.7193 69.2 55.0624 70.5431 55.0624 72.2V100.4H33.4624V72.1999Z" fill="#0A6CFF"/>
<path fill-rule="evenodd" clip-rule="evenodd" d="M60.6743 53C60.6743 53 60.6743 64.7 44.8031 64.7C28.9319 64.7 30.9734 52.7 30.9734 52.7L60.6743 53Z" fill="white"/>
<rect x="24.4004" y="26.2455" width="6" height="17.1" rx="3" transform="rotate(-30 24.4004 26.2455)" fill="#9DC4FF"/>
<rect x="30.0735" y="14" width="26.1" height="46.5" rx="4.8" fill="#0A6CFF"/>
<rect x="32.4734" y="17.6" width="21.3" height="39.3" rx="0.6" fill="#9DC4FF"/>
<path d="M35.8623 36.2C35.8623 31.8922 39.3545 28.4 43.6623 28.4C47.9701 28.4 51.4623 31.8922 51.4623 36.2C51.4623 40.5078 47.9701 44 43.6623 44C39.3545 44 35.8623 40.5078 35.8623 36.2Z" fill="#0A6CFF"/>
<path d="M38.6637 37.5863C38.1262 37.0488 38.1262 36.1773 38.6637 35.6397C39.2013 35.1022 40.0728 35.1022 40.6104 35.6397L43.2059 38.2352C43.7434 38.7728 43.7434 39.6443 43.2059 40.1818C42.6683 40.7194 41.7968 40.7194 41.2592 40.1818L38.6637 37.5863Z" fill="#9DC4FF"/>
<path d="M41.2638 40.1812C40.7263 39.6437 40.7263 38.7721 41.2638 38.2346L46.4548 33.0436C46.9924 32.506 47.8639 32.506 48.4015 33.0436C48.939 33.5811 48.939 34.4527 48.4015 34.9902L43.2105 40.1812C42.6729 40.7187 41.8014 40.7187 41.2638 40.1812Z" fill="white"/>
<rect x="24.2759" y="39.5168" width="6" height="10.2" rx="3" transform="rotate(-48 24.2759 39.5168)" fill="white"/>
<rect x="23.8623" y="47.6383" width="6" height="10.2" rx="3" transform="rotate(-57 23.8623 47.6383)" fill="white"/>
<path fill-rule="evenodd" clip-rule="evenodd" d="M52.8057 46.2799C52.3963 44.6727 53.3722 43.039 54.9815 42.6377C56.5851 42.2379 58.2091 43.2138 58.6089 44.8173L60.6295 52.9213C60.9746 54.3054 60.2973 55.7411 59.0096 56.355L55.7661 57.9013L52.8057 46.2799Z" fill="white"/>
<path d="M39.25 3.31976C42.1893 1.62275 45.8107 1.62275 48.75 3.31976L76.8551 19.5463C79.7944 21.2433 81.6051 24.3795 81.6051 27.7735V60.2265C81.6051 63.6205 79.7944 66.7567 76.8551 68.4537L48.75 84.6802C45.8107 86.3772 42.1893 86.3772 39.25 84.6802L11.1449 68.4537C8.20557 66.7567 6.39488 63.6205 6.39488 60.2265V27.7735C6.39488 24.3795 8.20557 21.2433 11.1449 19.5463L39.25 3.31976Z" stroke="#3B89FF"/>
</g>
</svg>
